<!DOCTYPE svg PUBLIC "-//W3C//DTD SVG 1.1//EN" "http://www.w3.org/Graphics/SVG/1.1/DTD/svg11.dtd">
<!-- Uploaded to: SVG Repo, www.svgrepo.com, Transformed by: SVG Repo Mixer Tools -->
<svg width="800px" height="800px" viewBox="0 0 1024 1024" class="icon" version="1.1" xmlns="http://www.w3.org/2000/svg" fill="#f100e7">
<g id="SVGRepo_bgCarrier" stroke-width="0"/>
<g id="SVGRepo_tracerCarrier" stroke-linecap="round" stroke-linejoin="round"/>
<g id="SVGRepo_iconCarrier">
<path d="M498.069 786.871s303.32-237.507 303.32-409.31-135.8-311.076-303.32-311.076-303.32 139.273-303.32 311.076 303.32 409.31 303.32 409.31z m0-682.312c146.614 0 265.466 121.438 265.466 271.239S498.834 741.519 498.834 741.519 232.603 525.598 232.603 375.798s118.852-271.239 265.466-271.239z m0 416.907c52.349 0 94.788-42.438 94.788-94.788v-37.915c0-52.349-42.438-94.788-94.788-94.788s-94.788 42.438-94.788 94.788v37.915c0 52.349 42.438 94.788 94.788 94.788z m-56.873-132.703c0-31.411 25.462-56.873 56.873-56.873s56.873 25.462 56.873 56.873v37.915c0 31.411-25.462 56.873-56.873 56.873s-56.873-25.462-56.873-56.873v-37.915z m246.448 417.066l-113.745 0.415v-0.415H232.663s-39.1 0-37.915-37.915c1.185-37.915 37.915-37.915 37.915-37.915h56.873s18.366-0.593 18.958-18.958c0.593-18.366-18.958-18.958-18.958-18.958h-56.873s-75.83-1.185-75.83 75.83 75.83 75.83 75.83 75.83h132.703v0.882h322.278s39.1 0 37.915 37.621c-1.185 37.621-37.915 37.621-37.915 37.621h-151.66s-18.958 0.298-18.958 18.664c0 18.364 18.958 18.958 18.958 18.958h151.66s75.83 1.175 75.83-75.242-75.83-76.418-75.83-76.418z" fill="#f100e7"/>
</g>
</svg>